<?xml version="1.0" encoding="utf-8"?>
<!-- Generator: Adobe Illustrator 16.0.0, SVG Export Plug-In . SVG Version: 6.00 Build 0)  -->
<!DOCTYPE svg PUBLIC "-//W3C//DTD SVG 1.1//EN" "http://www.w3.org/Graphics/SVG/1.1/DTD/svg11.dtd">
<svg version="1.1" id="Layer_1" xmlns="http://www.w3.org/2000/svg" xmlns:xlink="http://www.w3.org/1999/xlink" x="0px" y="0px"
	 width="24px" height="24px" viewBox="0 0 24 24" enable-background="new 0 0 24 24" xml:space="preserve">
<path fill="#F85A16" d="M12,5c3.453,0,5.891,2.797,5.566,6.78C19.313,11.734,22,12.531,22,15.5c0,1.93-1.57,3.5-3.5,3.5h-13
	C3.57,19,2,17.43,2,15.5c0-2.797,2.479-3.833,4.433-3.72C6.266,7.562,8.641,5,12,5z M12,3c-4.006,0-7.267,3.141-7.479,7.092
	C1.951,10.555,0,12.798,0,15.5C0,18.537,2.463,21,5.5,21h13c3.037,0,5.5-2.463,5.5-5.5c0-2.702-1.951-4.945-4.521-5.408
	C19.268,6.141,16.006,3,12,3z M11,17l-4-1.701V13.7l4-1.7v1.566L8.771,14.5L11,15.43V17z M13,12v1.566l2.229,0.934L13,15.43V17
	l4-1.701V13.7L13,12z"/>
</svg>
